<?xml version="1.0"?>

<svg version="1.1" id="Layer_1" xmlns="http://www.w3.org/2000/svg" xmlns:xlink="http://www.w3.org/1999/xlink" x="0px" y="0px" viewBox="0 0 264 116" style="enable-background:new 0 0 264 116;" xml:space="preserve">

<g class="st0">
&#x9;<path class="st1" d="M76.3,71h9.6c2.7,0,4.7,0.8,6.1,2.1c1.2,1.2,1.8,2.8,1.8,4.8V78c0,3.4-1.8,5.5-4.5,6.5l5.1,7.5h-5.4l-4.5-6.7&#xA;&#x9;&#x9;h-3.6V92h-4.6V71z M85.6,81.2c2.3,0,3.5-1.2,3.5-3v-0.1c0-2-1.4-3-3.6-3h-4.6v6H85.6z"></path>
&#x9;<path class="st1" d="M98,71h15.9v4.1h-11.3v4.3h9.9v4.1h-9.9v4.4H114V92H98V71z"></path>
&#x9;<path class="st1" d="M117.6,71h8.6c5,0,8.1,3,8.1,7.3v0.1c0,4.9-3.8,7.4-8.5,7.4h-3.5V92h-4.6V71z M125.9,81.6&#xA;&#x9;&#x9;c2.3,0,3.7-1.4,3.7-3.2v-0.1c0-2.1-1.4-3.2-3.8-3.2h-3.6v6.4H125.9z"></path>
&#x9;<path class="st1" d="M137.3,83V71h4.6v11.9c0,3.4,1.7,5.2,4.5,5.2s4.5-1.7,4.5-5V71h4.6v11.9c0,6.4-3.6,9.5-9.2,9.5&#xA;&#x9;&#x9;S137.3,89.2,137.3,83z"></path>
&#x9;<path class="st1" d="M159,71h9.8c2.4,0,4.3,0.7,5.5,1.9c1,1,1.4,2.1,1.4,3.6v0.1c0,2.4-1.3,3.7-2.8,4.5c2.4,0.9,3.9,2.3,3.9,5.2&#xA;&#x9;&#x9;v0.1c0,3.8-3.1,5.8-7.9,5.8h-10V71z M167.8,79.5c2,0,3.3-0.7,3.3-2.2v-0.1c0-1.4-1.1-2.2-3-2.2h-4.6v4.4H167.8z M169,87.9&#xA;&#x9;&#x9;c2,0,3.3-0.7,3.3-2.3v-0.1c0-1.4-1.1-2.3-3.4-2.3h-5.3v4.6H169z"></path>
&#x9;<path class="st1" d="M180.3,71h4.6v16.8h10.5V92h-15.1V71z"></path>
&#x9;<path class="st1" d="M198.7,71h4.6v21h-4.6V71z"></path>
&#x9;<path class="st1" d="M206.8,81.5L206.8,81.5c0-6,4.5-10.9,11-10.9c4,0,6.3,1.3,8.3,3.2l-2.9,3.4c-1.6-1.5-3.3-2.4-5.4-2.4&#xA;&#x9;&#x9;c-3.5,0-6.1,2.9-6.1,6.5v0.1c0,3.6,2.5,6.6,6.1,6.6c2.4,0,3.9-1,5.5-2.5l2.9,3c-2.2,2.3-4.6,3.8-8.6,3.8&#xA;&#x9;&#x9;C211.4,92.4,206.8,87.6,206.8,81.5z"></path>
</g>
<polygon class="st2" points="235.4,90.2 222.4,99.9 242.2,115.2 "></polygon>
<polygon class="st2" points="216.2,41 202.1,0.8 189,36.6 200.8,64.5 218.1,64.5 224.4,64.5 232.6,64.5 262.3,41 "></polygon>
<g>
&#x9;<path class="st1" d="M124.6,31c-2.6-3.1-6.2-5.8-12-5.8c-7.3,0-14,4.5-16.5,12.8c-2.3-7.3-8-12.8-17.6-12.8&#xA;&#x9;&#x9;c-8.9,0-15.6,5.7-18.1,13.5c-0.2-8.9-5.1-13.5-13-13.5c-5.2,0-9.3,2.2-12.7,6.1c-2-3.9-5.8-6.1-10.9-6.1c-5.5,0-8.8,2.9-11.4,6.2&#xA;&#x9;&#x9;V26H1.7v38.5h10.9V43.1c0-5.2,2.5-7.8,6.6-7.8c4.1,0,6.4,2.7,6.4,7.8v21.5h10.9V43.1c0-5.2,2.5-7.8,6.6-7.8c4.1,0,6.4,2.7,6.4,7.8&#xA;&#x9;&#x9;v21.5h10.9V52.1c2.6,8.1,9.9,13.3,19.1,13.3c7,0,12.2-2.7,15.8-7.2l-6.3-5.5c-3,2.8-5.7,4-9.3,4c-4.9,0-8.3-2.6-9.4-7.6h25&#xA;&#x9;&#x9;c1.5,10.5,9.2,16.2,17.3,16.2c5.7,0,9.3-2.7,12-6.3v5.5h10.9V12.1h-10.9V31z M70.2,42.3c0.9-5,3.8-8.2,8.3-8.2&#xA;&#x9;&#x9;c4.6,0,7.5,3.3,8.1,8.2H70.2z M124.8,45.4c0,6.4-4.2,10.6-9.3,10.6c-5.1,0-9.4-4.2-9.4-10.6v-0.1c0-6.5,4.3-10.6,9.4-10.6&#xA;&#x9;&#x9;c5.1,0,9.3,4.2,9.3,10.6V45.4z"></path>
&#x9;<rect x="138.4" y="12.1" class="st1" width="11.5" height="9.7"></rect>
&#x9;<path class="st1" d="M180.2,29.9c-2.7-2.7-7-4.3-13-4.3c-6.5,0-10.7,1.2-15,3.1L155,37c3.5-1.3,6.5-2.1,10.6-2.1&#xA;&#x9;&#x9;c5.5,0,8.3,2.5,8.3,7v0.6c-2.7-0.9-5.5-1.6-9.4-1.6c-7.4,0-13,2.6-14.9,8V26h-10.9v38.5h10.9v-7c1.7,5,6.7,7.7,12.6,7.7&#xA;&#x9;&#x9;c5.3,0,9-1.9,11.7-4.9v4.2h10.6V42.2C184.4,37,183.1,32.8,180.2,29.9z M174,51c0,4-3.5,6.8-8.6,6.8c-3.5,0-6-1.7-6-4.7v-0.1&#xA;&#x9;&#x9;c0-3.5,2.9-5.3,7.6-5.3c2.7,0,5.1,0.6,7,1.4V51z"></path>
</g>
</svg>